<svg xmlns="http://www.w3.org/2000/svg"  viewBox="0 0 64 64" width="64px" height="64px" baseProfile="basic"><linearGradient id="cDQH5CGY7uJqai27KTVwha" x1="45.002" x2="45.002" y1="51.945" y2="11.054" gradientUnits="userSpaceOnUse"><stop offset="0" stop-color="#e6abff"/><stop offset="1" stop-color="#6dc7ff"/></linearGradient><path fill="url(#cDQH5CGY7uJqai27KTVwha)" d="M36.575,11.054c0,0,8.664,6.043,8.287,28.856c-0.818-4.853-3.459-7.751-5.534-8.949	c3.081,7.751,1.32,12.981-1.572,15.754c1.068-4.726-0.314-6.301-0.314-6.301s-0.943,7.247-10.438,11.47	c9.37,0.441,16.412-3.844,17.419-4.853c0,2.08-2.012,4.915-2.012,4.915s6.414-2.584,6.854-10.272	c1.761,2.332,2.893,5.546,2.893,9.768c2.955-6.68,1.195-14.243,1.195-14.243s6.854,3.34,9.495,13.739	C64.293,32.537,55.427,14.639,36.575,11.054z"/><linearGradient id="cDQH5CGY7uJqai27KTVwhb" x1="18.706" x2="18.706" y1="51.946" y2="11.3" gradientUnits="userSpaceOnUse"><stop offset="0" stop-color="#c822ff"/><stop offset="1" stop-color="#1a6dff"/></linearGradient><path fill="url(#cDQH5CGY7uJqai27KTVwhb)" d="M11.553,51.946h14.51c0,0-0.448-4.653,2.961-6.61c0.252,1.01-0.505,2.968-0.505,2.968	s2.905-3.283,3.283-6.631c0.695,1.831,0.379,3.347,0.379,3.347s1.642-4.105,1.262-7.767c0.757,0.757,1.262,1.579,1.262,1.579	c0.695-13.388-16.04-10.925-15.914-6.757c2.905-2.968,8.825-1.579,8.777,3.095C27.509,41.484,12.858,41.548,11.553,51.946z M35.024,23.424c-4.484,1.137-7.515,1.516-7.515,1.516s7.957-6.441,8.904-12.377c-4.105,5.621-8.147,8.777-10.104,9.599	c3.283-6.441,3.789-10.862,3.789-10.862c-2.716,4.357-4.674,9.031-7.957,9.283c1.262-2.336,1.452-5.431,1.452-5.431	s-2.589,5.052-5.116,4.61s-4.042-1.326-4.042-1.326S8.908,26.743,1,26.883l2.638,6.596c0,0,0.757,2.323,2.778,3.27	c-1.262-2.463-0.505-4.926-0.505-4.926l1.768-0.127l0.884,1.642l0.695-1.894c0,0,0.884-0.127,2.211-0.947	c0.379,1.074,0.569,1.452,0.569,1.452s0-3.347,2.273-3.473c-0.947,6.568,2.273,7.262,1.831,10.483	c-0.947,0.127-1.642,0.253-1.642,0.253l1.389,1.579c0,0-1.137,2.084-5.304-0.82c3.283,4.61,6.695,2.841,7.325,1.894	c0.631-0.947-0.505-6.188,2.653-8.714c-2.463-0.19-3.158,1.831-3.158,1.831s-1.137-4.168,1.452-6.441S27.888,28.665,35.024,23.424z M14.058,25.129l-3.283,0.505l4.105-3.978L14.058,25.129z"/></svg>